<svg id="Layer_1" data-name="Layer 1" xmlns="http://www.w3.org/2000/svg" viewBox="0 0 997.86 965.76"><defs><style>.cls-1{fill:#a81924;}</style></defs><title>Redlogo</title><g id="svgg"><path class="cls-1" d="M403.93,62.76c-10.33,0-14.56.2-9.39.45s13.62.25,18.78,0S414.26,62.76,403.93,62.76Z" transform="translate(-13.14 -20)"/><path class="cls-1" d="M273.52,644c0,6,.23,8.53.5,5.5a74.93,74.93,0,0,0,0-11C273.75,635.45,273.52,637.93,273.52,644Z" transform="translate(-13.14 -20)"/><path class="cls-1" d="M315,754.12c0,7.48.21,10.54.48,6.8a118.84,118.84,0,0,0,0-13.61C315.22,743.57,315,746.63,315,754.12Z" transform="translate(-13.14 -20)"/><path class="cls-1" d="M322.73,633.8c5.2-5,9-5.12,4.33-.14a11,11,0,0,0-3,7.77,20.69,20.69,0,0,1-1.09,7c-.91,2-.71,2.34,1,1.67,1.25-.48,2-.23,1.84.58a1.9,1.9,0,0,0,1.31,2c.89.32,1.62-.24,1.62-1.26,0-3.82,14.25-16.29,21.2-18.56,9.33-3,10.52-4.18,7.67-7.33A19.46,19.46,0,0,0,343,619.37c-2.94,0-6.45-.6-7.81-1.32-3.1-1.66-18.74.62-22.9,3.34a11.45,11.45,0,0,1-4.3,1.87,6.63,6.63,0,0,0-3.44,2c-2.5,2.5-4,1.37-1.73-1.32,1.71-2.05.45-2.65-2-1-1.75,1.17-13.47,20.37-13.47,22.08a4.83,4.83,0,0,1-1.83,2.75c-2.95,2.45-3.55-1.82-3.66-25.88-.06-12.08-.31-22-.55-22s-.44.43-.45,1-.87,8.26-1.93,17.16c-2,17.25-2.49,63.3-.55,56.36.68-2.4.91,2.77.61,13.61-.37,13.36-.22,15.6.62,9.47.6-4.41,1.66-9.08,2.35-10.37s1.65-5.26,2.14-8.82A88.35,88.35,0,0,1,286.14,668c.65-2.14,1.79-6.37,2.53-9.4,1.32-5.39,5.43-7.85,6.71-4,.91,2.73,7.9-1.87,11.11-7.32l3.05-5.19-.76,7.78c-.42,4.27-1.3,13.6-2,20.73s-1.46,33.07-1.75,57.65c-.38,31.79-.26,38,.42,21.38,1.82-44.42,1.7-43.18,2.51-27.21.58,11.73.89,7.82,1.71-22C311,652.59,312.82,643.33,322.73,633.8Z" transform="translate(-13.14 -20)"/><path class="cls-1" d="M300.67,84.08c8.06-2.9,10.92-4.45,9.72-5.3s-.77-1,1.3-.55c1.64.36,6-.47,9.71-1.86s5.42-2.26,3.82-2-3.24,0-3.64-.62.73-1.18,2.52-1.18,3.55-.51,3.94-1.14,2-1.45,3.64-1.84S338.4,68,343,66.76c28-7.2,44-9,71.07-7.87,11.86.48,22.44.89,23.51.91a77.35,77.35,0,0,0,9.07-1.29l7.12-1.32-7.1.43a88.52,88.52,0,0,1-16.85-1.32c-11.87-2.12-31.45-2.08-48,.09-15.51,2-26.06,4-34.33,6.47l-15.11,4.45c-16.14,4.78-41.11,16-57.2,25.67-10.45,6.29-8.61,6.45,3.7.32C284.63,90.48,294.4,86.33,300.67,84.08Z" transform="translate(-13.14 -20)"/><path class="cls-1" d="M277.46,734c0,9.27.21,12.89.46,8.05s.25-12.42,0-16.85S277.46,724.77,277.46,734Z" transform="translate(-13.14 -20)"/><path class="cls-1" d="M276.31,680.27c.44-.72.22-1.3-.5-1.3s-1.52-2.48-1.79-5.51c-.48-5.26-.51-5.21-.72,1.3C273.09,681,274.38,683.39,276.31,680.27Z" transform="translate(-13.14 -20)"/><path class="cls-1" d="M333,341.67c1.17-.48,1.19-.69.08-.76a2.55,2.55,0,0,0-2.18.93c-.35.56-.17,6.25.39,12.63.85,9.53,1.06,10.33,1.23,4.48a71.87,71.87,0,0,1,.94-10.37c.58-2.54.44-2.82-.65-1.29s-1.39,1.29-1.41-1.52C331.38,343.88,332.1,342,333,341.67Z" transform="translate(-13.14 -20)"/><path class="cls-1" d="M329.73,368.34a74.93,74.93,0,0,0,0-11c-.27-3-.49-.55-.49,5.5S329.46,371.37,329.73,368.34Z" transform="translate(-13.14 -20)"/><path class="cls-1" d="M337.5,615.13c2.69-.28.81-.51-4.18-.52s-7.19.23-4.89.51A47.3,47.3,0,0,0,337.5,615.13Z" transform="translate(-13.14 -20)"/><path class="cls-1" d="M339.16,372.35c0,2.46,5,10.49,6,9.53.3-.29-.93-3.1-2.72-6.23C340.44,372.17,339.17,370.89,339.16,372.35Z" transform="translate(-13.14 -20)"/><path class="cls-1" d="M362.3,502.54c6.3,18.76,6.4,18.95,12.12,25a46.57,46.57,0,0,1,6.57,9.05c2.08,4.24,2.15,4.27,2.18,1,.05-5.16-3.47-12.48-7.15-14.89-4.47-2.93-5.42-5-11.67-25.11-3-9.62-9.26-27.69-13.92-40.16-6.51-17.38-8.06-22.77-6.65-23.1,2.49-.56,2.33-1.84-.89-7.3-3.85-6.54-5.22-13.31-6.29-31.15-.51-8.55-1-13.16-1.13-10.25A95.61,95.61,0,0,1,333.83,398c-2.47,12.32,7.75,54.06,19.94,81.43C355.51,483.36,359.35,493.76,362.3,502.54Z" transform="translate(-13.14 -20)"/><path class="cls-1" d="M342.39,343.4c-2.78-2.85-5.35-5.18-5.71-5.18s1.63,2.33,4.41,5.18,5.35,5.18,5.71,5.18S345.17,346.25,342.39,343.4Z" transform="translate(-13.14 -20)"/><path class="cls-1" d="M402.15,267.34c-.27-.27-1.71,1.84-3.2,4.7s-4.12,7.4-5.85,10.1c-3.6,5.63-24.42,26.28-26.49,26.28-.85,0-1.14,1.87-.75,4.86l.64,4.86-2.7-5.51c-1.49-3-3.41-5.46-4.28-5.4-1.21.07-1.2.25,0,.75.9.36,1.62,1.81,1.62,3.21s-.59,2.2-1.3,1.76-3.48,1-6.13,3.16-5.42,4-6.16,4-3.58,1.51-6.3,3.36-6,3.08-7.37,2.73a6.25,6.25,0,0,0-4.61,1c-2,1.47-1.95,1.67.72,2.37,1.6.42,2.55,1.34,2.11,2.05a1.68,1.68,0,0,0,.72,2.23c.95.59,1.17.38.59-.55s0-1.5,1.66-1.5a3.76,3.76,0,0,1,3.36,2.48c.44,1.36,3.85,5.3,7.59,8.75,8.36,7.71,10.41,10.65,5.24,7.5l-3.72-2.26,3.47,3.1a38.39,38.39,0,0,1,6.15,7.64c2.83,4.8,4,2.23,1.26-2.83-1.56-2.93.95-13,5.53-22.11,2.94-5.89,4.15-6.07,6.28-.95,2.65,6.42,4.33,6.24,3.59-.37-.8-7,3.42-16.12,7.16-15.47,1.66.29,2.19-.57,2.19-3.53,0-4.55,4.38-14.91,10.1-23.87,2.2-3.47,4.38-8,4.83-10.05S399.42,276,400,276C401.06,276,403,268.2,402.15,267.34Z" transform="translate(-13.14 -20)"/><path class="cls-1" d="M309.48,520.25c1.37-5,3.39-12.27,4.48-16.19,6.33-22.76,15.56-75.15,13.23-75.15-.36,0-1.05,3.06-1.53,6.8-2.88,22.77-9.77,50.28-20.92,83.54-9.37,28-9.8,30.94-5.05,35.4,7.37,6.92,13.78,16.68,14.27,21.71.58,6,2.46,11.33,4.48,12.58,1.07.66,1.22-.81.55-5.38l-.92-6.3,3,2.59,3,2.59-.86-5.56c-1.23-7.92-6.28-15.84-16.83-26.39l-4.57-4.57,2.62-8.3C305.79,533.06,308.1,525.24,309.48,520.25Z" transform="translate(-13.14 -20)"/><path class="cls-1" d="M368.12,401.22c7.74-2-3.27-13.63-15.44-16.38l-4.66-1,2.37,2.78C360.77,398.8,364.73,402.07,368.12,401.22Z" transform="translate(-13.14 -20)"/><path class="cls-1" d="M709.7,118c0,.58,1.08,1.39,2.4,1.81s6.95,7.17,12.52,15c9,12.67,12.39,16.33,12.24,13.25-.1-2.1-25.33-38.49-27-39-1.41-.42-1.63.41-1,3.68A48.38,48.38,0,0,1,709.7,118Z" transform="translate(-13.14 -20)"/><path class="cls-1" d="M674.34,673.85a30.78,30.78,0,0,0,1.2,6.31c1.06,1.21.34-8.46-.75-10.19C674,668.75,673.86,670.13,674.34,673.85Z" transform="translate(-13.14 -20)"/><path class="cls-1" d="M702.45,523.49c-4-11.6-8-24.08-9-27.71s-2.88-11-4.3-16.34c-2.19-8.24-7.91-35.79-9.69-46.64-.45-2.72-.56-2.58-.71.87-.5,11.69,13.54,76.19,22.37,102.78l3.23,9.72L698,552.65c-9.61,9.68-17,25.47-10.82,23.1,1.77-.68,1.94.1,1.22,5.54-.76,5.85-.67,6.15,1.16,3.86a6.81,6.81,0,0,0,1.32-5.18c-.82-3.29,6.35-15.63,13.73-23.63C711.15,549.19,711.12,548.72,702.45,523.49Z" transform="translate(-13.14 -20)"/><path class="cls-1" d="M781.64,193.11c6.3,0,18-9.55,18.5-15.16.88-8.89-2.66-13.37-10.37-13.13-5.71.18-6,.3-1.94.73,5.06.53,10,5.87,10,10.87,0,3.73-11,12.67-16.76,13.59C774.89,191,775.3,193.11,781.64,193.11Z" transform="translate(-13.14 -20)"/><path class="cls-1" d="M729.91,211c-.82,1.33,9.19,28.64,11.35,30.93,3.79,4,7.3-5.06,7.1-18.42l-.1-6.47-1.9,8.09c-2.55,10.85-4.4,10.28-9.37-2.89C732.89,211.41,731.27,208.84,729.91,211Z" transform="translate(-13.14 -20)"/><path class="cls-1" d="M769.62,219.69l13.93.94v-4.37c0-2.47-1.71-7.33-3.92-11.17-3.39-5.92-5.14-8.06-5.14-6.3a27.63,27.63,0,0,0,1.94,4.21c2.14,4.11,2.49,9.27.81,11.92-.87,1.38-3.4,1.5-12.37.58-6.2-.64-11.52-.75-11.82-.26C751.66,217.46,756.73,218.82,769.62,219.69Z" transform="translate(-13.14 -20)"/><path class="cls-1" d="M747.7,149.73c1.66-1.09,3.48-1.54,4-1,1.71,1.62-.74-5.37-2.55-7.28-1.41-1.48-1.9-1.34-3.1.89C743.27,147.64,744.22,152,747.7,149.73Z" transform="translate(-13.14 -20)"/><path class="cls-1" d="M685.15,734a23.16,23.16,0,0,1,3.66,5.83c.83,2.09,1.32,2.47,1.37,1.08.05-1.2-1.29-3.82-3-5.83-2.86-3.42-3.12-5.13-4-25.69-1.73-41.56-4.06-49.74-18.09-63.38-9.73-9.47-22.22-16.44-28.94-16.15l-3.59.15,7.77,1.86-4.77,1c-5.44,1.13-9.62-.38-5.5-2,2.23-.88,2.25-1,.19-1.07a2.84,2.84,0,0,0-2.81,1.52c-2.38,7.68-1.9,8.85,5.6,13.63,16.27,10.35,19.75,14.6,21.46,26.22,1.58,10.73,4.14,13.39,5.23,5.44q1.82-13.18-4-21.68c-3.66-5.39-3.8-6-1.18-5,1.06.41,1.94.31,1.94-.21,0-1.73-5.72-6-10.69-8-5.77-2.33-6.3-4.27-1.17-4.27,6,0,11.75,3.74,18,11.78,3.24,4.17,6.48,7.22,7.21,6.77s.93-.2.47.55,0,3.28,1,5.63c1.46,3.47,1.89,3.8,2.33,1.75,1-4.66,4.78,10,5.56,21.46C681.83,723.66,682.78,731.45,685.15,734Z" transform="translate(-13.14 -20)"/><path class="cls-1" d="M360.74,653.62c9-7.12,23.05-14.82,27.06-14.82,2.54,0,3.7-2.58,1.95-4.32-1.16-1.15-1.32-1-.66.76,1.09,2.86-2.13,3-7,.4a38.64,38.64,0,0,0-9.92-2.88l-6.48-1,7.77-.79,7.78-.8-7.78-.13c-6.34-.11-9.44.67-16.84,4.23-25.26,12.17-32.11,27.21-33.9,74.5-.69,18.41-1.17,21.92-3.41,25.26l-2.6,3.89,3.72-3.56c3.69-3.52,3.73-3.72,4.59-23.32,1.42-32.38,2.32-38.95,6.48-47.27,2.05-4.11,3.4-6.16,3-4.56s-.46,2.92-.12,2.92c1.23,0,5.83-10.15,5-11-.48-.48-.27-.69.48-.45s3.27-1.73,5.6-4.38c4.93-5.6,10.71-8.79,15.91-8.79s4.62,1.58-1.17,4.09c-7.63,3.3-11.79,7.21-9.39,8.82,1.3.87,1.41,1.31.32,1.32-.89,0-1.62,1.12-1.62,2.45a23.69,23.69,0,0,1-1.82,6.81c-2.52,6-4.13,17.3-2.32,16.18.77-.47,1.94.12,2.61,1.33,1.42,2.52,2,1.32,3.61-8C353.07,662.2,355.44,657.81,360.74,653.62Z" transform="translate(-13.14 -20)"/><path class="cls-1" d="M388.84,649.17a3.1,3.1,0,0,0,2.6-1.94c1.11-2.88-5.17-2.42-11.48.85-17.38,9-20.58,20.52-19.55,70.41,1,48.52,2.38,70.54,3.65,58.3,2-19.08,2.8-56.82,1.2-55.84-3.78,2.34-2.42-36.72,1.76-50.75C370.07,660,381.3,649.17,388.84,649.17Z" transform="translate(-13.14 -20)"/><path class="cls-1" d="M397.69,654.53c-5.13,1.47-4.86,3.31.94,6.42,6.89,3.7,13.95-1.31,8.93-6.34C405.76,652.82,403.69,652.8,397.69,654.53Z" transform="translate(-13.14 -20)"/><path class="cls-1" d="M329.2,690.63c0,4.63.23,6.53.52,4.21a40.85,40.85,0,0,0,0-8.42C329.43,684.1,329.2,686,329.2,690.63Z" transform="translate(-13.14 -20)"/><path class="cls-1" d="M353.51,907a49.21,49.21,0,0,0,1.8,9.72l1.8,6.48.09-5.36a28,28,0,0,0-1.8-9.72C353.68,904.16,353.5,904.06,353.51,907Z" transform="translate(-13.14 -20)"/><path class="cls-1" d="M479.73,200.9c-1-1.66-3.35-41.8-2.48-42.67.39-.4,1.69.52,2.89,2a11.62,11.62,0,0,0,5.5,3.51c4.83,1.12,9,11.15,9,21.79,0,8.14,4.39,13,5.42,6,.63-4.26,3.21-4.26,4.06,0,1.8,9,7.77,5.47,9.45-5.58.64-4.18,1.85-7.83,2.7-8.1,2-.68,6.85,15,7,22.78.11,5.75.17,5.84,1.36,2.13.69-2.13.85-7.38.36-11.66-1.92-16.75-1.85-27.78.18-27a3,3,0,0,1,1.88,2.51c0,1,1.92,2.59,4.26,3.57,8,3.34,26.07,44.34,25.92,58.79,0,3,.45,5.17,1.08,4.79,1.73-1.07,1.34-9.79-.75-16.73s-4-22.23-2.28-18.35q1.71,3.94,4.8-3.69l1.05-2.59.52,2.59a26.71,26.71,0,0,0,1.73,5.18c1.72,3.64,8.66,25.25,9.37,29.15.38,2.09.65,1.28.76-2.26.24-7.29,1.53-6.94,4.92,1.3,1.54,3.73,4.65,11.17,6.92,16.51,3.82,9,6.24,23.26,6.43,37.9,0,2.85.63,3.54,3,3.46,1.61-.06,2.19-.4,1.3-.76-2.5-1-1.93-3.58,1.49-6.8,2.37-2.22,3.7-2.63,5.51-1.69a6.08,6.08,0,0,0,3.86.7c.82-.3,1.83,1.47,2.32,4.06,1.69,9,5.85,4.53,5.93-6.42,0-2.85.46-4.54,1-3.76,1.1,1.65,5.71,1.93,4.69.28a1.3,1.3,0,0,0-1.79-.41,1.46,1.46,0,0,1-1.94-.62,2.4,2.4,0,0,0-4.54,1.27c0,1.43-.59,2.59-1.3,2.59s-1.29-1.31-1.29-2.92c0-4.18-12.69-24.31-14.81-23.5-.94.36-2.1-.38-2.59-1.65-.76-2-1.07-2-2.23-.4s-1.2,1.46-.57-.47c1-3.17-.48-5.58-2-3.26-.9,1.33-1.14,1.12-1-.84.39-5-.2-6.65-1.38-3.88-.88,2.08-1.09,1.69-1.06-1.95,0-5.79-3.7-14.67-5.67-13.45-1,.61-1.22,0-.7-2,1-4-.26-7.43-1.92-5-.84,1.21-1,.92-.44-1,.9-3.23-3.27-13.16-7.79-18.53-2.45-2.91-3.46-6-4.14-12.69-.87-8.47-.94-8.62-1.8-3.65-.65,3.72-.84,2.3-.68-5.06.15-7.2-.26-10.4-1.4-10.79s-1.33.19-.75,1.7.38,2-.65,1.33c-.83-.51-1.52-.32-1.52.44a1.41,1.41,0,0,1-1.44,1.37c-1.42,0-1.16-2,.87-7,.63-1.54.53-2.18-.27-1.68s-2.26-.34-3.45-1.73-1.63-2.53-1-2.53.25-1.87-.89-4.16-2.31-3.45-2.64-2.47-1.11.59-2.09-1.35a4.32,4.32,0,0,0-4.71-2.74c-1.75.16-2.45,0-1.56-.43,2.39-1.07.61-3.13-1.87-2.18-1.32.51-1.8.3-1.27-.56,1-1.7-4.77-5.66-8.61-5.86-4.32-.24-10.62-4.94-8.45-6.31,1.28-.82,1-1.11-.92-1.13a6.45,6.45,0,0,0-4,1.32c-1.67,1.67-6,.16-5.26-1.83.67-1.74-7.95-2.22-9-.5-.4.64.13,2.14,1.16,3.34,3.5,4.09,4,6.09.77,3.16-3.43-3.12-5.74-3.89-4.2-1.4.67,1.08.22,1.21-1.54.44-5.37-2.33-12.48-2.2-19.73.37a70.13,70.13,0,0,1-14.27,3.2c-8.51.73-11.44,2.84-22.23,16-7.29,8.87-7.67,9.58-2.91,5.37,6.72-6,8.61-6.33,3.45-.7-2.09,2.29-2.77,3.38-1.5,2.41,5-3.79,3.84.41-1.42,5.32-6.13,5.71-9,5.78-4,.09,3-3.4,2.95-3.39-1.08.25-2.55,2.31-3.66,4.15-2.82,4.67s.56,2.32-1.09,5.26a36.3,36.3,0,0,0-3.21,7.64c-.41,1.78-3.13,11.69-6.05,22s-5.92,21.12-6.67,24-1.93,7-2.59,9.16a48.25,48.25,0,0,0-1,11.66l.18,7.68,1-8.42A98.14,98.14,0,0,1,414.25,232c1.56-4.64,4.19-13.67,5.84-20.09,3.64-14.19,5-17.74,7.62-19.92,4-3.29,4.74-.44,4.13,15.14-.64,16.36,1.39,12.71,2.75-4.93.57-7.48,3-14.51,3-8.68,0,5.18,2.56,1.39,6.56-9.69,4.34-12.06,9.21-19.17,15.33-22.43a40,40,0,0,0,7-5.24c4.82-4.57,4.44-6,6.24,23.73l1.59,26.18-3.05,3.25c-1.68,1.78-4,3.24-5.16,3.24-5,0-6.87,6.41-3.29,11.09,1.79,2.35,1.87,2.25,1.15-1.59s-.34-4.33,4.33-6.72C473.49,212.69,481.08,203.08,479.73,200.9Zm102.33,28.88c1.1,2.63,1.47,4.79.84,4.79s-1.45-1.31-1.8-2.92a43.5,43.5,0,0,0-1.65-5.5C577.64,221.55,580,224.82,582.06,229.78Zm-78.91-99.65c-1.12-.43-2-1.31-2-1.94,0-1.8,2.1-1.37,3.89.78S506.32,131.35,503.15,130.13ZM474.09,173c.17-14.81,2.08-7.7,2.26,8.43.07,5.88-.28,7.83-1.16,6.47C474.5,186.86,474,180.15,474.09,173Z" transform="translate(-13.14 -20)"/><path class="cls-1" d="M657.33,372.22c-.36-.36-2.58.23-4.92,1.31-5.57,2.57-16.56,4.16-16.56,2.39s4.4-4,8.23-4c4.53,0,7.45-1.32,6.46-2.92-.5-.82-.21-1,.72-.4s4.59.23,8.3-.66,6-1.87,5.12-2.17c-2.84-.95-1.75-2.57,2.26-3.37,5.59-1.12,5.29-4.87-.32-4l-4.21.63,4.55-2.29c17.9-9,17.91-8.82-3.74-33.37-6.5-7.37-9.19-11.32-8.49-12.46.39-.63.11-1.15-.63-1.15s-2.14-1.55-3.13-3.45c-1.25-2.38-2-2.88-2.43-1.62a6.3,6.3,0,0,0,1,4.43,25.36,25.36,0,0,1,2.42,7.32c.46,2.6,1.72,5.46,2.81,6.37,4,3.31,5,6.75,1.69,5.69-3.75-1.19-1.63,1,5.64,5.88,8.59,5.75,7.81,7.46-5.26,11.62-8.89,2.83-10.54,5.15-3.71,5.2,13.31.12,6.22,9.29-9,11.7-5.72.9-9.55,2.24-10.8,3.77s-4.44,2.64-8.86,3.13a30.93,30.93,0,0,0-12.57,4.37c-3.11,2-7.87,5-10.58,6.6-4.89,3-12,11.59-12,14.51,0,.84,2.65-1.73,5.9-5.71,7.95-9.77,11-9.64,5.07.2-6.75,11.2-5.52,11.39,5.49.83,10.82-10.37,12-10.89,15.93-7,3.2,3.21,7.23,3.3,12.31.27a57,57,0,0,1,9.71-4.16C650.27,377.57,658.31,373.2,657.33,372.22Z" transform="translate(-13.14 -20)"/><path class="cls-1" d="M623.3,449.53c-.74,2.84-.94,2.9-2.45.85-1.32-1.81-4.48-2.38-16.6-3l-15-.74L588,450.18a20.78,20.78,0,0,0-1.34,5.12,5.53,5.53,0,0,1-1.62,3.22c-4.38,4.38-2.39,41.65,2.24,41.65,1.38,0,2,1.32,2,4.38,0,2.4.87,5.1,1.94,6a6,6,0,0,1,1.94,4.08,3.6,3.6,0,0,1-1.94,3.22c-1.46.56-1.94,2.91-1.94,9.42,0,9.53-1.26,11.78-6.57,11.78-3.1,0-3.68.77-5.58,7.45-3.44,12.09-5,12.78-4.32,1.94l.57-9.39H536.42l-.6,9.41c-.4,6.26-1.54,11.15-3.4,14.58A89.54,89.54,0,0,0,527,577.59c-4.59,16.22-8.14,11.74-3.85-4.86,1.2-4.67,5.19-29.34,5.19-32.12,0-1.13-3.88-1.57-13.77-1.57H500.76l1,4.86a40.92,40.92,0,0,1,.82,8.1c-.08,1.78-.51,11.25-.94,21l-.78,17.82,38.67,0c21.27,0,39.28-.45,40-1,13.76-9.74,39.3-64.8,43.41-93.59C626.61,470.65,626.87,435.88,623.3,449.53ZM541.5,557.89c-.65,4.58-1.55,6.51-3.16,6.82-2.53.49-2.91-1.9-1.05-6.5a52.63,52.63,0,0,0,2.05-6.84C540.73,545,542.56,550.49,541.5,557.89Zm5,7.06c-2.94,0-3.59-3.7-1.09-6.19,1.82-1.83,1.76-1.88,2.84,2.63C549,564.38,548.67,565,546.48,565Z" transform="translate(-13.14 -20)"/><path class="cls-1" d="M432.76,407.53c-3,3.84-5.51,7.41-5.51,7.92s-1,2-2.14,3.32c-2,2.22-2,2.37.58,2.37,3.09,0,7.37-5.35,11.64-14.58C441,398.57,439.59,398.87,432.76,407.53Z" transform="translate(-13.14 -20)"/><path class="cls-1" d="M639.39,425.31a65.06,65.06,0,0,0,0-10.36c-.28-2.65-.5-.16-.5,5.54S639.12,428.36,639.39,425.31Z" transform="translate(-13.14 -20)"/><path class="cls-1" d="M590.18,581.88c-6.47,7.82-7.08,9-4.69,9,1.73,0,5.37-4,9.06-10C599.09,573.53,596.61,574.1,590.18,581.88Z" transform="translate(-13.14 -20)"/><path class="cls-1" d="M643,668.76c-3.9-11.19-18.1-25.11-20.94-20.53-.48.77.54,2.31,2.27,3.4,7.1,4.53,12.62,11.34,14.83,18.31,2.78,8.72,4.35,56,1.6,47.9l-1.53-4.54-.48,4.52c-.26,2.48.15,12,.92,21.23s1.43,20.88,1.46,25.94a107,107,0,0,0,1.83,17.63l1.77,8.42-.56-11c-.3-6.06-.87-13.51-1.26-16.57a28.51,28.51,0,0,1,1.42-12C647.53,741.7,646.52,679,643,668.76Z" transform="translate(-13.14 -20)"/><path class="cls-1" d="M506.39,84.76c1.33,1.2,11.56,6,11.56,5.4,0-.74-9.78-5.89-11.18-5.89C506.27,84.27,506.1,84.49,506.39,84.76Z" transform="translate(-13.14 -20)"/><path class="cls-1" d="M721.57,574c1.3,0,1.21-3.33-.21-7.77l-1-3.24-.28,3.24c-.27,3.07-.33,3-1.27-.65-.78-3.05-1-3.27-1.14-1C717.45,567.91,720,574,721.57,574Z" transform="translate(-13.14 -20)"/><path class="cls-1" d="M73.69,745.8c-1.5-.9-18.94-5.69-23.58-6.48-4.48-.76-4.69-.62-6.08,4.09-.79,2.68-1.79,6.33-2.22,8.12s-1.66,6.44-2.73,10.36c-5.86,21.42-7.35,27-8.33,31.1-.6,2.49-1.67,6.57-2.38,9.06s-2.84,10.37-4.72,17.5-4,15-4.71,17.49-1.79,6.57-2.4,9.07-1.78,7.1-2.56,10.24c-1.76,7-1.9,6.88,11.62,10.45,19.75,5.22,16.46,8.65,25.09-26.09,4.13-16.63,8-32,8.69-34.12,1.66-5.45,9-35.21,10.27-41.46.57-2.85,1.89-8.26,2.93-12S74.12,746.06,73.69,745.8Z" transform="translate(-13.14 -20)"/><path class="cls-1" d="M248,103.68c20.45-24.89,59.49-48.58,95.64-58,2.85-.74,8.68-2.32,13-3.5s9.52-2.62,11.66-3.19c2.48-.67,3-1.1,1.36-1.19-11.75-.62,9.7-4.52,33.3-6,14.55-.95,16.28-1.65,10.36-4.17-7-3,63.28,1.12,74.5,4.37,1.61.46,2.92.52,2.92.14,0-1.06-7.89-4.78-10.13-4.78-1.08,0-1.62-.35-1.19-.78,2.4-2.4,55.77,9.42,78.69,17.43,24.43,8.55,74.64,31.11,82.27,37,2.57,2,2.56,2-.79,4.95-16.69,14.58-13.77,38.1,6.19,49.8,12.09,7.08,32.54,3.07,47.94-9.42,6.28-5.1,6.52-5.13,10.8-1.79,3.77,3,5.2,3.22,5.13,1-.11-3.82-9.26-8.92-12.16-6.77-21.24,15.75-48.53,13.93-56.57-3.77-4.32-9.52-.47-20.84,9.12-26.76,6.62-4.08,6.39-4.55-5.87-12.08-67.31-41.29-143.82-60.56-219-55.13-73.68,5.32-133.83,32.1-175.29,78-3.1,3.43-5.31,6.55-4.93,6.93S246.74,105.25,248,103.68Z" transform="translate(-13.14 -20)"/><path class="cls-1" d="M363,946.19c-1.53-2.68-3.36-4.17-5-4.1-1.45,0-1.91.39-1,.75a2.84,2.84,0,0,1,1.62,2.43c0,2.35,9.47,12.26,11.71,12.26,1.07,0,.48-1.36-1.57-3.56A51.79,51.79,0,0,1,363,946.19Z" transform="translate(-13.14 -20)"/><path class="cls-1" d="M218.33,877.08l-9.39-1.91.08-4.49a146.11,146.11,0,0,1,1.79-14.86c.93-5.7,2.14-13.28,2.68-16.84.93-6.05,3.2-20,6.72-41.46A130.54,130.54,0,0,0,221.8,782l.09-6.48-5.18-.8c-2.85-.44-13-2-22.54-3.57-22-3.5-38.85-3.56-53-.16-5.93,1.42-11.08,2.58-11.47,2.58s-.3-3.37.18-7.49l.87-7.49-9.49-2.15c-19.66-4.47-18.82-4.52-20.39,1.13a38.4,38.4,0,0,0-1.4,7.19,17.46,17.46,0,0,1-1.18,5.19,91.08,91.08,0,0,0-2.73,10.75c-.85,4.27-2,9.23-2.55,11s-1.63,6.15-2.4,9.72-2.9,12.89-4.74,20.73-4,16.87-4.68,20.08-1.84,7.87-2.46,10.36c-2.47,9.79-5.18,22-5.18,23.27,0,1.49,14.26,1.63,25.9.25,7-.84,7.11-.88,8.15-6,9.47-47.16,12.17-53.92,25.34-63.48,9.51-6.91,17.92-9.05,35.19-9,18,.08,21.43,1.36,20.15,7.46-.48,2.25-1.41,7.15-2.08,10.89s-1.86,10.16-2.65,14.25c-11.63,60.77-9.59,67.69,21.9,74.18,9.49,2,8.48,2.69,16.27-11.9C229.25,878.4,229.45,879.35,218.33,877.08Z" transform="translate(-13.14 -20)"/><path class="cls-1" d="M654.43,476.61a34.59,34.59,0,0,0,2.84-7.77c.52-2.36,2.94-10.32,5.38-17.69,5.79-17.53,15.08-65.1,9.77-50.09-.59,1.65-1.15-.68-1.58-6.48l-.66-9.07L668.34,393c-1,4.13-2.32,7.81-2.91,8.17-1.66,1-1.28,5.41.53,6,1.27.43,1.27,1.26,0,4.06a20.94,20.94,0,0,0-1.61,7.32,30.13,30.13,0,0,1-2.08,9c-1.15,2.86-1.75,6.08-1.33,7.16s-.93,9.1-3,17.82C652.87,474.16,651.81,481.39,654.43,476.61Z" transform="translate(-13.14 -20)"/><path class="cls-1" d="M677.63,615.14c3-.28.55-.5-5.5-.5s-8.54.22-5.51.5A74.93,74.93,0,0,0,677.63,615.14Z" transform="translate(-13.14 -20)"/><path class="cls-1" d="M718.11,218.18c-2.62,3-11,15.12-11,15.94,0,1.21,4.81-4.45,9.33-11C720,217.94,721.1,214.78,718.11,218.18Z" transform="translate(-13.14 -20)"/><path class="cls-1" d="M371.49,794.41c0,.29-.64,8.1-1.36,17.36s-1.86,23.7-2.54,32.07-1.79,22.07-2.46,30.45-1.91,21.34-2.73,28.82c-2.31,21-2.44,19.77,2,20.06,2.14.15,9.2.73,15.69,1.29,15.34,1.33,13.34,8.9,17.3-65.4.7-13.18,1.86-32.41,2.57-42.73s.87-19.18.35-19.69C399.35,795.66,371.57,793.52,371.49,794.41Z" transform="translate(-13.14 -20)"/><path class="cls-1" d="M352.88,939.39c-.38-1.78-4.5-10.07-9.16-18.41-9.69-17.39-9.46-16.39-5.29-22.75,5.09-7.76,7.09-15.65,9-35.46,2.08-21.7,2.6-20.61-10.42-21.67l-10.15-.82.23-7.13c.38-11.88,2.06-14.72,8.22-13.89,5.95.79,5.42,1.39,11.94-13.26,6.36-14.29,6.36-14.31-2.09-14.31-8.67,0-10.19-1.53-8.42-8.47,6-23.51,6.77-28.94,5.08-36-1.84-7.7-1.62-10.37,3.27-38.74.45-2.63.59-5.47.31-6.32s-1.26,2.48-2.19,7.38c-3.69,19.61-6.57,42.16-6.71,52.46a108.46,108.46,0,0,1-2.27,16.05L332,788.45l-6,.39-6,.39-.94-20.1c-.52-11-.69-21.84-.37-24s.18-3.63-.29-3.34-1.25,10.59-1.74,22.89-1.42,22.9-2.08,23.56c-2.49,2.49-7.8-2.79-8-8l-.18-4.83-.79,5.19c-1.31,8.61-15.29,7.61-19-1.36-2.56-6.11-2.43-10.16.28-9.12,1.85.71,2,0,1.23-5.84-.69-5.2-.43-7.16,1.2-9,1.91-2.12,1.91-3.18-.07-13.13-1.18-6-2.62-14.62-3.21-19.25s-1.58-10.46-2.22-13l-1.16-4.53-.85,4.53c-.46,2.5-.38,10.37.18,17.5s.59,14.57,0,16.56-.74,7.52-.45,12.31.82,12.93,1.14,18.09c.64,9.88-1.33,13.37-2.18,3.89l-.5-5.51-.45,12-7.35.92c-25,3.12-35.56,18.06-40.7,57.42-2.09,15.94-6.71,13.62,38.93,19.55,15.33,2,16.19,2.25,17,5.33.58,2.12.93,2.44,1,.93.2-3.53,3-3.93,15-2.15l11,1.63-.76,5.31a16.16,16.16,0,0,1-12.48,12.94c-5.14,1-5.48.54-3-4.22,3.74-7.22,2.2-8.91-2.11-2.31L292,886.55l-5.91-.79c-3.25-.43-10.42-1.08-15.93-1.43a123,123,0,0,1-15.55-1.9,66.42,66.42,0,0,0-12-1.31l-6.47,0-3.88,7.44c-2.13,4.1-4.94,9.05-6.25,11-3.88,5.84-2.54,8,5.6,8.9,15.4,1.74,30.44,4,33.06,5l2.76,1-3,12.1c-1.65,6.66-2.93,13.56-2.85,15.34l.16,3.24.53-3.24a29,29,0,0,1,1.67-5.83,34.11,34.11,0,0,0,1.8-5.83c2.79-13.8,5.14-17.71,9.76-16.24,3.61,1.15,3.08,7.85-1.31,16.55a12.12,12.12,0,0,0-1.14,4.6,6.54,6.54,0,0,1-1,3.58,29.36,29.36,0,0,0-2.71,6.41c-4.39,13.57-9.62,25.84-11.83,27.72-3.48,3-4.84,11.51-2,12.6,3.34,1.28,5.31-2.58,10.33-20.24,2.53-8.9,6.09-20.86,7.91-26.56S277,927.39,277,926.19a3.73,3.73,0,0,1,1.25-3,4.18,4.18,0,0,0,1.3-3.24c0-3.71,1.28-4,19.1-4.28,14.87-.23,17.22-.59,23.28-3.59l6.73-3.34,2.81,2.69,2.81,2.69L332,910.54c-1.72-2.71-1.82-3.41-.44-2.88,2.91,1.12,17.86,26.08,17.84,29.79,0,.71-1.16-1-2.58-3.85a36.42,36.42,0,0,0-3.89-6.47c-.72-.73.56,2.57,2.87,7.34s4.75,8.31,5.44,7.88.86-.15.39.61c-1.18,1.92.44,5.66,2,4.69.77-.48,1,.18.58,1.62-.79,2.67,4.71,14.35,6.43,13.67.58-.23,1.3.29,1.59,1.15s-.11,1.21-1.26.56-.93-.1.35,1.27c3.73,4,5.62,1.64,2.13-2.61C360.38,959.52,354.24,945.68,352.88,939.39Zm-29.45-104.1-1.24,4.09-10.63-.7c-12.05-.78-15.17-1.93-15.17-5.58,0-1.39-.58-2.54-1.29-2.54s-1.3,1.12-1.3,2.48c0,3.57-9.43,3.81-25.59.63-6.41-1.26-1.78-13.08,6.8-17.39,6.71-3.36,8.5-2.91,10.42,2.62l1.57,4.53.48-3.88c.6-4.79,4.16-5.26,4.9-.65l.52,3.24.86-3.24c.71-2.65,1.55-3.17,4.66-2.87,6,.58,7,1.28,7,4.77,0,4.42,2.31,4.19,2.83-.28.31-2.68,1.06-3.5,3-3.3a93,93,0,0,1,13.17,2.24C326.1,820.08,325.57,828.24,323.43,835.29Z" transform="translate(-13.14 -20)"/><path class="cls-1" d="M685.7,876.4c0,4.57.46,7.65,1,6.83,1.19-1.85,1.12-9.77-.09-12.85C686.09,869.12,685.69,871.83,685.7,876.4Z" transform="translate(-13.14 -20)"/><path class="cls-1" d="M732.85,802.19c-1.34-12.15-2-14.87-3.9-15.36-1.66-.43-2.41-2.22-2.76-6.61l-.48-6-.23,6.15c-.14,3.6-.84,6.16-1.71,6.16-1.07,0-1.16-3.06-.32-11.34.63-6.23,1.17-19.21,1.19-28.83.11-37.49,1-57.74,2-45.34.8,10.11.84,9.84.43-3.24-.24-7.84-.75-17.17-1.12-20.73l-.69-6.48,2.66,5.54c4.22,8.79,5.14,5.68,4.85-16.31l-.28-20.33-.7,20.73c-.58,17.44-.91,20-2.09,16.2-.82-2.69-1.09-9.16-.64-15.89.9-13.44-3.61-67.36-5.8-69.42-.5-.47-.56,2.36-.13,6.27,1.91,17.49,2,28.77.48,40.82l-1.68,13-3-5.83c-8.61-16.7-18.91-30.43-16.26-21.69.72,2.4,0,2.06-4.19-2-2.78-2.67-5.61-4.84-6.3-4.82s-.22.63,1,1.36c4.13,2.4,2.35,3.51-2.79,1.73-11.28-3.88-32.83-1.93-39.52,3.58-6.2,5.11-6,5.58,3.65,8.8,7.74,2.57,21.49,13.47,21.49,17,0,2.23,4.07-.62,5.88-4.13,2.19-4.24,2.47-6.89.6-5.74-.71.44-1.29-.14-1.29-1.29s-.5-1.79-1.11-1.42c-2,1.26-7.34-5.56-5.64-7.25,3.62-3.62,13,5.8,17.18,17.29,3.27,9,3.84,18.32,5,83.37,1.11,61.92,1.2,60.24-3.18,60.24-4.19,0-4.66-2.6-3.21-17.52,2-21,1.78-29.82-.79-27.68-1.78,1.47-2,3.52-1.35,12.68.79,11.14-1,15.66-6.13,15.69a17.72,17.72,0,0,0-5.12,1.93c-6,3.15-6.23,2.48-8.69-28.25-1.25-15.6-2.61-25.11-5-35.23l-1.25-5.18.53,6.47c.29,3.57,1.16,10.85,1.94,16.2,1,7.08,1,11.86,0,17.6-1.42,7.75-1,12.45,2.5,26.79,1.21,5-1.32,8.73-5.89,8.73-.93,0-1.74,2.25-2,5.51l-.4,5.5-6.8.39c-4.66.27-6.8-.1-6.8-1.17s-.84-.8-2.37.58c-1.38,1.25-4.55,2.15-7.6,2.15a96.88,96.88,0,0,0-10.9.78l-5.69.77.94,16.39c1.78,31.15,3.78,68.29,4.8,89.31.56,11.6,1.25,21.31,1.53,21.58,1,1,23.91,1.07,27.48.1,5.58-1.51,6.73.71,3.57,6.9-1.48,2.91-2.69,6.18-2.69,7.28s-.59,2-1.3,2-1.29,1.54-1.29,3.43c0,4-5.47,15.73-9.27,19.8-2.87,3.08-2.46,4.78.85,3.51,2.61-1,14-25,12.8-27-.51-.83-.32-1.09.46-.61s1.72-.08,2.15-1.2c1.12-2.92,1-3.4-.68-2.37-.89.55-1.23.19-.87-.9a2.61,2.61,0,0,1,2.16-1.8c.86,0,2.87-2.33,4.46-5.18l2.91-5.18,10.33-.85c25.94-2.13,64-6.17,67.16-7.11,2.55-.78,2.55-.43.22-18.6C741.27,874.74,735.52,826.31,732.85,802.19Zm-71.58,127.7c-1.45,2.65-2,3-2,1.35-.05-2.19,2.69-6.31,3.61-5.44C663.07,926,662.36,927.86,661.27,929.89Zm40.33-39c-13.27,1.54-13.32,1.53-13-1.4.27-2.32.14-2.28-1.17.32-2.06,4.08-4.12,3.65-3.14-.64l.81-3.57L683,889c-2.25,3.53-24,7.94-26.61,5.39-1.36-1.36-4-36.38-4.18-56l-.16-14.9,12.12-1.16c14.53-1.39,13.25-2.84,16.17,18.27,2.75,19.89,4.38,28.27,4.6,23.78.15-3.08.21-3.09,2.17-.65s2,2.47.76-.11c-.7-1.44-1.89-7.15-2.66-12.69s-2.27-14.23-3.33-19.31c-2.22-10.64-2.26-10.53,4.43-10.64,2.77,0,5.5-.54,6.06-1.1,1.73-1.73,4.9-.39,6.46,2.74l1.49,3,.84-3.38c2.12-8.44,5.11,6,5.25,25.23,0,5.35.45,10,.93,10.38.85.65,3.67,22.84,3.67,28.92C711,889.61,710.36,889.9,701.6,890.91Zm-3.22-152.34c0-19.23.21-21,1-11.66.53,6.06.94,19.76.9,30.45,0,14.83-.29,17.59-1,11.66C698.75,764.74,698.35,751,698.38,738.57Zm21.51,40.75a5.33,5.33,0,0,0-1.12,3.14c0,4.06-4.11,6.64-10.57,6.64h-6.27L701.76,759c-.34-61-1-76.58-4.49-107.86l-.72-6.47,2.66,3.23c1.46,1.79,2.67,3.69,2.69,4.25.06,2.15,6.55,3.52,9.1,1.92,10.32-6.44,14.82,51.24,6.55,83.88-2,8-1.71,16.32.69,18.07,1.9,1.38,1.9,2.1,0,8.48-2.53,8.53-2.53,8.44,0,5.92C722.14,766.48,723.75,775.09,719.89,779.32Z" transform="translate(-13.14 -20)"/><path class="cls-1" d="M648.79,944.23c-.07-5.18-2.46-5-5.18.47a48,48,0,0,1-6.2,9.27c-2.09,2.23-2.68,3.56-1.58,3.56C638,957.53,648.81,946.43,648.79,944.23Z" transform="translate(-13.14 -20)"/><path class="cls-1" d="M727,764.48c0,4.63.23,6.53.52,4.21a40.85,40.85,0,0,0,0-8.42C727.19,758,727,759.85,727,764.48Z" transform="translate(-13.14 -20)"/><path class="cls-1" d="M991.89,787.67c-4.24,1.65-10.69,3.34-32.78,8.57-10.69,2.53-21.23,5.17-23.41,5.86a28.44,28.44,0,0,1-6.89,1.25,14.3,14.3,0,0,0-5.64,1.46c-6.1,3.27-8-9-2.57-16.36,4.09-5.46,8.72-7.18,38.51-14.3,26-6.22,26.1-6.25,27-12,3.56-23,2.72-26.92-5-23.53-1.42.62-13.66,3.81-27.2,7.09-31.16,7.53-33.34,8.16-42.76,12.37-16.83,7.52-26.75,24.5-24.81,42.42,1.78,16.49,6.79,38.5,8.84,38.89s28.43-4.8,45.12-8.87c2.5-.6,7.16-1.69,10.37-2.42s10.49-2.47,16.19-3.88c13.47-3.33,16.53-.54,11.8,10.77-3.61,8.65-11.49,11.95-45.48,19.06-3.57.74-8.23,1.84-10.37,2.43s-6,1.43-8.62,1.88c-5.45.92-5.89,1.76-7.61,14.2-.7,5.06-1.62,10.89-2.06,13l-.78,3.75,6.94-.9c3.82-.49,9-1.41,11.48-2.05s7.31-1.77,10.69-2.52c15.39-3.44,18.75-4.2,23-5.25l13.6-3.34c37.93-9.26,48.48-29.3,37.32-70.83C1001.55,784.89,1000.89,784.16,991.89,787.67Z" transform="translate(-13.14 -20)"/><path class="cls-1" d="M890.45,863c-.44-2.49-1.29-6.58-1.9-9.07-1.62-6.6-3.09-13.94-9.74-48.59-6.62-34.45-8.12-40.89-9.48-40.63l-4.15.72c-7.8,1.31-22.65,4.47-23.08,4.9s2.66,20.66,6,38.25c7.19,37.18,10.45,57.27,9.55,58.8-1.44,2.48-23.66-.48-32-4.27-15.94-7.23-30.48-26.89-30.48-41.21a49.78,49.78,0,0,0-1.26-8.44c-.69-3-2.16-11.59-3.28-19-2.48-16.56-1.63-15.41-10.62-14.25-32.79,4.22-32,4-33.23,11.23-.89,5.44-2.6,13.36-4.09,18.91l-1,3.72,10.32-.92,10.31-.91,1.6,9.51c.88,5.23,2.14,11.3,2.82,13.48a27.91,27.91,0,0,1,1.22,6.18,12.25,12.25,0,0,0,1.09,4.44c10.09,21,11,22.46,19.93,30.84,19.11,18,53.85,25.5,87.21,18.74,20-4,20.24-4.12,19.37-6.34C894.88,887.18,893.16,878.52,890.45,863Z" transform="translate(-13.14 -20)"/><path class="cls-1" d="M612.46,649.3C600.3,645.66,605.38,640,619,642l4.53.66-4.92-2.12c-6.53-2.81-5.82-5.47,2.49-9.34l6.64-3.09.82-11.16c2.24-30.06,2.29-31.91.91-29.95-.75,1.07-2,5.29-2.84,9.37-1.66,8.3-4.93,14.28-5,9.15-.08-5.41,5.17-38.93,7.08-45.24,1.35-4.45,1.9-12.25,1.86-26.4-.05-21.53-.27-21.75-5.24-5.18-1,3.2-6.33,14.86-11.93,25.91-12.66,25-15.36,29.46-21.52,35.91-1,1.06-2.28,4.35-2.81,7.3-2.84,15.7-5.91,21.71-14,27.38l-5.56,3.91-49.12.37-49.13.37v40.42l-3.56,3.18c-4.41,4-10.9,8.12-12.63,8.12-.85,0-1.3-20.61-1.3-59.26,0-52.91-.24-60-2.27-66.32-2.58-8-2.81-10.45-1-10.45.72,0,1.35,2.48,1.42,5.51l.11,5.5,1.32-4.53c1.55-5.35.73-16.23-2.36-31.27-1.52-7.41-1.87-12.07-1.09-14.73,1.07-3.64,1.19-3.43,2,3.24.7,6.12.84,5.35,1-5.42a89.47,89.47,0,0,0-2.37-23.33c-2.9-12.09-3.28-17.89-1.18-17.89,1.86,0,.13-13.24-1.9-14.56-.8-.52-9.75-1-19.89-1l-18.43,0-2,3.82c-2.45,4.75-2.45,5.25,0,5.25,1.45,0,1.95,1.56,2,6.15,0,12.68,1.69,13.21,3.44,1.11,2.23-15.38,4.63-16.68,6.24-3.37,5.22,43.24,5.93,47.09,8.11,44,4.73-6.76,11.17,4,6.7,11.24-3.54,5.74-5.07,5.52-5.07-.74,0-2.81-.59-5.47-1.3-5.91-1.67-1-1.7,7.9-.05,15.21.69,3,1.91,9.9,2.72,15.24s2.28,13.26,3.28,17.58c3.47,14.94-.45,16.25-4.6,1.53-1.47-5.16-3.24-11.18-4-13.37a26.5,26.5,0,0,1-1.29-6.15c0-1.2-.58-2.18-1.29-2.18s-1.3-1-1.3-2.16-.26-1.9-.58-1.57.23,5.23,1.25,10.9c2.5,14.07,2.46,16.46-.25,12.59-3.47-5-4-3.23-1.37,4.53,4.1,12.1,4.5,29.91.45,20.73-.39-.89-.37.72.05,3.57,1.19,8.18-2.57,3.36-6.57-8.43l-3.29-9.71.29,43.4.31,43.4,10,.65c11.81.77,13.72,2,11.3,7.52-1.93,4.36-16.26,7.24-20.12,4-1.52-1.26-1.81,0-1.81,7.67v9.17l8.74.38,8.75.38-7,2.36c-5.69,1.91-9.08,2.18-18.46,1.45-6.44-.51-11.44-.4-11.39.24.2,2.49,9.13,8.45,13.77,9.18a20.86,20.86,0,0,1,8,3.17c3.94,3.05,6.7,3,13.74-.19a65,65,0,0,1,14.5-3.84c10-1.42,17.26-3.66,17.26-5.31,0-.62,2.47-1.82,5.5-2.69a36.55,36.55,0,0,0,9.72-4.65c2.32-1.7,4.21-2.48,4.21-1.72s1.46,1.36,3.24,1.36c6.14,0,3.4,3.68-12,16.12-5.83,4.71-8.41,5.82-18,7.69-6.14,1.21-12.69,3-14.56,3.94-11.12,5.69-29.27,4.51-38.54-2.5-4.91-3.72-4.58-1.79.66,3.9,3,3.21,6,7.29,6.85,9.07,1.69,3.7,5.22,4.16,10.9,1.42,2.07-1,9-2.5,15.43-3.35,34.64-4.58,46.47-10.5,59-29.52,7.17-10.87,7.54-12.32,3.8-14.94s-2-6.09,2.75-6.09c4,0,5.6,6.71,2.31,10a2.49,2.49,0,0,0-.57,2.85c1.09,1.77,8.49,1.87,8.49.11q0-4.56,7.19,6.8c10.92,17.27,23.34,25.23,44,28.21,17.91,2.58,31,5.23,32.32,6.51,3,3,11.08-.5,11.08-4.75,0-.69,2.63-3.82,5.83-7,5.92-5.81,8.25-10.35,2.92-5.67-9.47,8.28-24.38,11.12-36,6.84a179.1,179.1,0,0,0-18.7-5.21c-14.42-3.21-15.2-3.68-31-18.54l-5.4-5.09,5-1.07c4-.86,5.67-.58,8.51,1.44a25.24,25.24,0,0,0,7.33,3.42,16.86,16.86,0,0,1,5.95,2.76c3,2.6,13.46,5.57,19.6,5.57,2.83,0,8.62,1.56,12.87,3.47l7.73,3.47,5.39-2.75a45.46,45.46,0,0,1,8.82-3.46c4.65-1,14.15-7.31,13.21-8.82-.45-.73-5.32-.87-12-.34-11.12.88-37.2-5.67-27.17-6.82,9.34-1.08,21.14-5.73,25.71-10.13,3.27-3.15-1.34-6.68-6-4.57-6,2.71-19.79.6-21.25-3.23-2.41-6.34-.51-7.57,13.66-8.86,4.28-.39,10.19-1,13.14-1.48s6.45-.19,7.79.52c2.53,1.36,9.52.63,9.52-1C617.71,651.3,615.35,650.17,612.46,649.3ZM445.08,683.75a14.24,14.24,0,0,1-5.18,0c-1.61-.31-.6-.57,2.25-.59S446.32,683.42,445.08,683.75ZM478.43,666c-1.07,0-1.94-.58-1.94-1.29s.87-1.3,1.94-1.3,1.94.58,1.94,1.3S479.5,666,478.43,666Zm35.06,7.78c-1,0-2.8,1.31-3.93,2.91-2.31,3.29-4.51,1.51-4.55-3.67,0-4.54,5.36-6.3,8.79-2.87C515.89,672.25,515.76,673.79,513.49,673.79Zm10.53-.33c-.32,1.25-.59.23-.59-2.26s.27-3.52.59-2.27A10.49,10.49,0,0,1,524,673.46Zm30.46,8.36c-1.21,1.21-1.9,1.21-3.11,0s-.86-1.55,1.56-1.55S555.69,680.61,554.48,681.82Zm12.39,1.93a14.24,14.24,0,0,1-5.18,0c-1.61-.31-.6-.57,2.25-.59S568.11,683.42,566.87,683.75Z" transform="translate(-13.14 -20)"/><path class="cls-1" d="M604.66,886.27c-.69-14.61-1.79-39.54-2.44-55.4-1.42-34.31-1.34-34-7.3-33.75-6.43.25-6.87-.69-7.29-15.7-.56-20.57-3.61-19.7-3.61,1V798l-6.8.39c-5.92.34-6.77.73-6.51,3,.15,1.42.88,25,1.61,52.47s1.72,55.29,2.18,61.91l.84,12,31.21-.73-.32-7.12C606.06,916,605.35,900.88,604.66,886.27Z" transform="translate(-13.14 -20)"/><path class="cls-1" d="M551.57,831.16c-11.76-29-16.82-30.8-91.6-32.85-20.13-.55-37-1.37-37.41-1.81s-.77-6.52-.71-13.5c.11-14.42-1.43-21.12-3-13-1.75,9-.28,35.43,2.12,38.12,1.18,1.32,3.07,5.58,4.21,9.46,2.28,7.72,3.59,9.09,8.73,9.12,4.78,0,4.74-.39,3.42,35.65-1.47,39.67,0,35.63-12.77,35.63-9.53,0-10.45.22-9.61,2.27a60.07,60.07,0,0,1,2,6.15c2.78,10.63,6.21,19.2,8.11,20.26,1.16.65,31,1.55,66.3,2l64.2.83,0-9.61C555.35,888.89,553,834.57,551.57,831.16Zm-28.7,41.51-.39,27.21-23.32.38c-12.83.2-25.31,0-27.73-.42L467,899l.9-34.44c.5-19,1.21-34.94,1.58-35.53,1.1-1.79,35.54-1.26,40.95.62C522.21,833.78,523.36,837.78,522.87,872.67Z" transform="translate(-13.14 -20)"/><path class="cls-1" d="M549.22,94.19c4-1,5.46-.78,9.63,1.8,2.69,1.66,4.51,2.4,4,1.63-3.94-6.38-63.67-29.37-90.28-34.75a18.91,18.91,0,0,1-6.16-2.23c-.89-.72-3.37-1-5.51-.53s-3.88.23-3.88-.49a1.28,1.28,0,0,0-1.29-1.26c-.72,0-1.3.84-1.3,1.87,0,2.6,2.53,3.89,4.26,2.16,2-2,4.81-1.78,4.81.46,0,1.14,2.17,2.43,5.51,3.27A317.14,317.14,0,0,1,530.9,88.75C543.27,94.82,544.94,95.32,549.22,94.19Z" transform="translate(-13.14 -20)"/><path class="cls-1" d="M604.75,154.89c6.74,6.77,12.55,12.3,12.91,12.3s-4.87-5.53-11.61-12.3-12.55-12.31-12.91-12.31S598,148.12,604.75,154.89Z" transform="translate(-13.14 -20)"/><path class="cls-1" d="M567.83,100.54l-3.89-2.32,3.24,2.72c1.78,1.49,3.68,2.72,4.21,2.74,2.8.08.58,3.92-2.27,3.92-5,0-4,1.78,4.86,8.84,18.43,14.74,52.38,53.8,48.72,56.05-.83.52-.19,1.67,1.6,2.93,3.9,2.74,4.34,2,2.42-3.92C618.45,145.69,593.9,116.11,567.83,100.54Z" transform="translate(-13.14 -20)"/><path class="cls-1" d="M639.09,296.76c2.78,2.85,5.35,5.18,5.7,5.18s-1.62-2.33-4.41-5.18-5.35-5.19-5.7-5.19S636.31,293.91,639.09,296.76Z" transform="translate(-13.14 -20)"/><path class="cls-1" d="M400.43,475.55c-.54-6.39-.33-9.06.72-9.06.82,0,1.48,1.26,1.48,2.8,0,4.65.9,2.16,1.82-5.07,1.15-9-.05-8.58-7,2.6-3.2,5.16-6.84,11.28-8.1,13.59l-2.28,4.21h14.11Z" transform="translate(-13.14 -20)"/><path class="cls-1" d="M385.41,286.39a58.19,58.19,0,0,0-5.51,5.51l-5.12,5.51,5.5-5.13C385.41,287.52,386.39,286.39,385.41,286.39Z" transform="translate(-13.14 -20)"/><path class="cls-1" d="M282.22,598l1.58-6.71c.87-3.69,2-7.14,2.55-7.67a3.32,3.32,0,0,0,1-2c0-1.82-2.07-1.2-4.33,1.29-1.18,1.3-2.14,2.91-2.13,3.56s.61.32,1.33-.75c.93-1.37,1.12.15.67,5.19Z" transform="translate(-13.14 -20)"/><path class="cls-1" d="M414.67,311a3.19,3.19,0,0,0-1.41-3.77c-1.55-.86-2.31-4-2.92-12l-.83-10.81-.33,8.42c-.29,7.32-.47,7.85-1.36,4.07-.57-2.39-.39-10.45.38-17.91,1.19-11.48,1.12-13.74-.46-14.74-3.46-2.18-5.47-1.44-4.56,1.7.46,1.6,1.36,9.79,2,18.2C406.61,303.28,412.41,319.65,414.67,311Z" transform="translate(-13.14 -20)"/><path class="cls-1" d="M700.1,251.19c2.59-5,.45-8.12-2.4-3.48-1,1.68-3.41,5.78-5.3,9.12-3.62,6.39-3.74,6.54-11.79,15.07-5.41,5.72-5,7.45.65,2.51C686,270.19,697.7,255.82,700.1,251.19Z" transform="translate(-13.14 -20)"/><path class="cls-1" d="M715.24,201.15C714,202.69,705.84,218,704.68,221c-.9,2.28,4.65-4.46,9.68-11.76C718.77,202.8,719.53,195.82,715.24,201.15Z" transform="translate(-13.14 -20)"/><path class="cls-1" d="M696.11,235.38c2.73-6.54,1.94-6-7.05,4.69-4.33,5.17-8.26,10.85-8.71,12.64s-2.94,5.28-5.5,7.77c-6.18,6-10.83,11.76-10.1,12.49C667.1,275.31,691.8,245.7,696.11,235.38Z" transform="translate(-13.14 -20)"/><path class="cls-1" d="M715.47,173.06a78.29,78.29,0,0,1-6.22-12.16c-3.8-9.46-2.13-9.59-39.33,2.9-28.56,9.59-35.67,12.59-33.95,14.32.65.64,8.5-1.59,42.63-12.1,28.51-8.77,27.3-9.25,36.18,14.45.73,2,1.93,3.57,2.66,3.57C719.89,184,718.8,178,715.47,173.06Z" transform="translate(-13.14 -20)"/><path class="cls-1" d="M579.9,502.76c-.48,1.07-1.18,8.94-1.56,17.49l-.7,15.55,1.91-8.42C581.39,519.3,581.68,498.76,579.9,502.76Z" transform="translate(-13.14 -20)"/><path class="cls-1" d="M534.27,499.14c.78-.21,2.14-4.59,3-9.72,3.51-20.55,7.34-28.54,5.56-11.6-.5,4.81-.91,11.54-.92,15V499l17.34.28,17.35.28L575.77,486c-.75-12.36-3.09-33.4-4.14-37.22-.32-1.15-12.91-1.55-50.37-1.59l-50-.05v51.77l15.87.32C508.74,499.64,532.53,499.61,534.27,499.14Z" transform="translate(-13.14 -20)"/><path class="cls-1" d="M587.91,404.12c0-2.76-.29-5-.65-5s-.65,1.69-.65,3.75c0,5.93-9.86,14.39-16.78,14.39-4.61,0-15.5,3-14.83,4.1,1,1.64,7.23,1.28,10.91-.64a66.93,66.93,0,0,1,9.54-3.55C584,414.65,587.91,410.5,587.91,404.12Z" transform="translate(-13.14 -20)"/><path class="cls-1" d="M579.16,447.91c-.94.38-1.59,2.9-1.56,6l.06,5.4,2.48-4.54C583.81,448.11,583.53,446.15,579.16,447.91Z" transform="translate(-13.14 -20)"/><path class="cls-1" d="M582.56,260.48c1.32,0-.26-9.43-2.5-15-3.09-7.65-3.63-9-4.26-10.94-.45-1.38-.67-1.21-.74.56-.14,3.23,3.83,17.84,5.27,19.45a6.2,6.2,0,0,1,1.1,3.57C581.43,259.43,581.94,260.48,582.56,260.48Z" transform="translate(-13.14 -20)"/></g></svg>